<?xml version="1.0" standalone="no"?>
<!DOCTYPE svg PUBLIC "-//W3C//DTD SVG 20010904//EN"
 "http://www.w3.org/TR/2001/REC-SVG-20010904/DTD/svg10.dtd">
<svg version="1.0" xmlns="http://www.w3.org/2000/svg"
 width="1065.000000pt" height="1065.000000pt" viewBox="0 0 1065.000000 1065.000000"
 preserveAspectRatio="xMidYMid meet">
<metadata>
Created by potrace 1.14, written by Peter Selinger 2001-2017
</metadata>
<g transform="translate(0.000000,1065.000000) scale(0.100000,-0.100000)"
fill="#000000" stroke="none">
<path d="M5239 10646 c-2 -2 -47 -7 -99 -11 -52 -3 -111 -8 -130 -10 -19 -2
-56 -5 -82 -7 -27 -1 -48 -5 -48 -8 0 -3 -12 -5 -27 -5 -29 -1 -121 -12 -157
-20 -12 -2 -39 -6 -61 -9 -22 -3 -47 -7 -55 -10 -8 -3 -28 -7 -45 -10 -16 -3
-39 -7 -50 -10 -104 -27 -155 -42 -250 -72 -60 -19 -124 -42 -142 -50 -17 -8
-35 -14 -40 -14 -4 -1 -26 -9 -48 -20 -22 -11 -44 -19 -48 -20 -4 0 -48 -20
-96 -44 -49 -25 -92 -42 -95 -39 -3 4 -6 1 -6 -5 0 -7 -4 -12 -10 -12 -12 0
-178 -97 -202 -118 -10 -8 -18 -11 -18 -7 0 5 -10 -1 -22 -12 -13 -11 -54 -41
-93 -68 -148 -103 -253 -192 -421 -360 -112 -112 -204 -212 -267 -290 -103
-127 -167 -209 -196 -254 -20 -29 -49 -72 -64 -95 -15 -22 -46 -72 -69 -111
-22 -38 -48 -81 -56 -95 -9 -14 -17 -27 -17 -30 0 -3 -7 -16 -15 -30 -35 -63
-70 -136 -70 -147 0 -7 -4 -13 -9 -13 -5 0 -11 -10 -15 -23 -3 -13 -18 -50
-33 -83 -15 -32 -28 -63 -29 -69 -2 -5 -16 -45 -33 -88 -17 -43 -33 -88 -35
-100 -2 -12 -12 -39 -20 -59 -9 -21 -14 -38 -11 -38 2 0 0 -12 -6 -27 -13 -34
-46 -158 -54 -203 -8 -41 -13 -63 -15 -70 -1 -3 -2 -9 -1 -13 1 -5 -3 -25 -8
-45 -6 -20 -13 -59 -17 -87 -3 -27 -8 -58 -10 -69 -7 -39 -18 -163 -18 -218
-1 -32 -3 -58 -6 -58 -14 0 -2 -473 15 -595 2 -16 7 -55 10 -85 6 -58 12 -95
15 -95 1 0 4 -13 5 -30 2 -16 11 -64 20 -105 9 -41 18 -82 20 -91 2 -9 8 -33
13 -52 l10 -36 -61 2 c-87 1 -148 -31 -198 -103 -21 -30 -37 -57 -36 -60 0 -3
-5 -31 -12 -64 -13 -57 -11 -191 4 -281 20 -122 83 -334 154 -512 38 -97 95
-369 108 -523 7 -68 8 -355 2 -550 -2 -108 -1 -118 24 -167 28 -54 108 -127
175 -159 18 -8 35 -21 37 -27 2 -7 6 -64 9 -127 6 -107 8 -133 20 -215 28
-197 87 -376 191 -586 40 -80 199 -348 214 -359 3 -3 11 -14 17 -25 7 -11 54
-87 106 -170 117 -185 135 -217 217 -381 80 -158 84 -168 122 -269 17 -44 34
-88 40 -97 5 -10 9 -24 9 -33 0 -22 38 -38 75 -31 28 6 65 40 71 66 0 3 3 12
7 20 18 46 26 130 22 245 -2 72 -6 141 -9 155 -3 14 -7 45 -10 70 -7 50 -22
142 -31 180 -3 14 -7 39 -10 55 -3 17 -9 47 -14 68 -5 20 -7 37 -4 37 3 0 0 7
-7 15 -7 8 -10 15 -7 15 3 0 1 17 -4 38 -5 20 -12 48 -15 62 -3 14 -17 68 -31
120 -21 79 -24 108 -19 169 4 41 9 77 11 80 2 4 6 26 10 51 4 25 13 59 20 77
8 18 12 33 10 33 -2 0 7 31 20 70 13 38 22 70 20 70 -2 0 7 29 20 65 13 36 22
65 20 65 -2 0 2 18 10 41 8 22 14 43 14 47 -1 4 0 9 1 12 3 9 10 45 15 84 3
21 7 42 9 45 27 44 27 578 1 711 -3 14 -8 48 -11 75 -5 45 -55 176 -127 335
-32 72 -119 272 -164 380 -20 47 -42 99 -49 115 -32 76 -116 311 -129 365 -2
8 -8 30 -14 48 -5 17 -8 32 -5 32 3 0 0 8 -5 18 -5 9 -12 34 -15 56 -4 21 -8
41 -10 45 -18 31 -28 354 -14 456 10 69 34 152 51 178 8 12 34 32 58 45 24 12
51 27 59 32 59 34 216 85 310 99 135 21 212 16 415 -28 85 -18 91 -19 126 -25
19 -3 45 -8 59 -11 26 -6 75 -13 125 -20 17 -2 41 -6 54 -9 13 -3 49 -8 80
-11 31 -4 74 -8 96 -11 93 -11 147 -13 275 -14 74 0 146 2 160 5 14 2 40 7 59
9 105 16 171 56 241 144 90 115 113 263 52 329 -60 64 -144 76 -392 57 -134
-10 -387 -11 -465 -2 -86 10 -119 17 -211 43 -162 48 -250 61 -379 60 -117 -2
-158 -7 -244 -32 -29 -8 -59 -16 -65 -18 -6 -1 -24 -7 -39 -13 -38 -16 -44
-15 -76 7 -46 33 -116 189 -131 293 -1 4 -6 22 -11 40 -5 18 -12 53 -15 78 -2
25 -8 59 -11 75 -3 17 -7 46 -8 65 -2 19 -6 78 -10 130 -4 52 -8 185 -8 295 0
188 1 203 23 250 13 28 24 55 25 60 2 6 17 40 34 78 17 37 31 69 31 72 0 6 88
196 106 228 8 15 12 27 7 27 -4 0 -3 4 2 8 12 9 115 215 115 231 0 6 3 11 8
11 4 0 14 15 21 33 8 17 39 75 69 127 113 196 214 325 282 360 34 17 182 67
224 75 11 2 21 4 21 5 0 1 11 4 24 6 14 2 50 11 80 19 31 7 73 16 95 19 21 4
41 8 45 10 4 3 25 7 46 10 22 2 65 9 95 15 65 12 145 25 225 36 11 1 40 5 65
9 25 3 68 9 95 12 28 3 66 7 85 9 393 44 1026 54 1350 21 19 -2 67 -7 105 -11
84 -8 130 -13 170 -19 17 -3 48 -7 70 -10 39 -5 62 -9 135 -22 19 -4 45 -8 57
-9 11 -2 29 -6 40 -9 10 -3 33 -8 51 -11 18 -3 61 -12 95 -21 34 -8 73 -17 87
-20 14 -2 40 -9 58 -15 18 -6 39 -12 45 -13 59 -11 370 -120 465 -163 51 -23
80 -48 167 -144 60 -65 175 -215 175 -227 0 -6 6 -15 13 -19 8 -4 17 -15 20
-23 4 -8 17 -31 28 -50 61 -100 140 -283 152 -356 3 -16 10 -51 15 -78 13 -63
7 -242 -11 -332 -8 -40 -13 -97 -11 -128 3 -61 31 -173 45 -182 5 -3 9 -14 9
-25 0 -10 5 -19 10 -19 6 0 10 -5 10 -10 0 -34 153 -202 235 -258 22 -15 42
-29 45 -32 3 -3 17 -11 33 -19 15 -8 35 -28 45 -45 27 -46 32 -77 47 -281 6
-74 9 -109 19 -187 3 -27 8 -69 11 -95 4 -27 8 -59 10 -73 3 -23 11 -85 20
-155 2 -16 6 -50 10 -75 3 -25 8 -61 10 -80 4 -35 11 -91 20 -165 3 -22 7 -62
10 -90 3 -27 8 -66 10 -85 3 -19 7 -60 10 -90 3 -30 7 -71 9 -90 9 -82 18
-181 23 -265 8 -124 9 -472 1 -515 -22 -118 -29 -228 -15 -237 14 -8 24 12 46
97 20 75 26 103 37 170 3 19 7 46 9 60 17 103 33 259 40 400 2 30 4 55 5 55 0
0 3 55 5 123 3 68 7 127 9 131 3 4 8 30 11 57 3 27 8 59 11 72 5 27 16 106 19
147 1 17 3 30 4 30 1 0 4 23 6 50 2 28 7 86 11 130 15 173 8 689 -12 850 -3
22 -7 60 -10 85 -2 25 -7 61 -10 80 -3 19 -8 49 -10 65 -3 17 -10 55 -15 85
-6 30 -12 66 -14 80 -7 47 -16 95 -27 140 -6 25 -12 54 -14 65 -4 23 -32 128
-64 236 -35 121 -79 246 -131 379 -56 139 -218 470 -231 470 -4 0 -8 5 -8 10
0 28 -207 328 -317 459 -73 87 -237 255 -319 326 -32 28 -74 64 -93 81 -56 48
-190 144 -201 144 -5 0 -10 3 -10 8 0 4 -20 18 -45 32 -25 14 -45 28 -45 32 0
5 -4 8 -10 8 -5 0 -38 17 -72 38 -107 65 -425 212 -492 227 -12 3 -61 19 -111
36 -86 29 -103 34 -143 43 -9 2 -37 9 -62 16 -44 12 -213 47 -260 55 -64 10
-243 34 -250 33 -3 0 -7 0 -10 1 -25 10 -682 25 -691 17z"/>
<path d="M7607 7134 c-1 -2 -25 -6 -52 -10 -64 -8 -71 -10 -125 -24 -25 -7
-52 -14 -60 -16 -8 -2 -47 -13 -86 -23 -39 -11 -86 -22 -105 -25 -110 -19
-308 -24 -459 -12 -184 15 -363 11 -415 -10 -28 -11 -69 -54 -82 -84 -35 -88
46 -285 150 -364 40 -31 119 -60 192 -72 61 -10 348 -10 428 -1 31 4 81 9 111
12 30 3 108 15 173 26 65 11 129 22 143 24 62 9 112 19 205 41 68 16 147 22
270 19 129 -4 159 -6 230 -19 54 -10 139 -38 216 -72 80 -35 128 -39 130 -11
6 59 4 79 -11 122 -55 164 -186 316 -345 401 -28 15 -157 63 -183 69 -12 3
-32 7 -44 10 -67 15 -91 18 -181 20 -53 1 -98 0 -100 -1z"/>
<path d="M4264 6183 c-8 -13 -8 -26 1 -47 12 -28 11 -78 -2 -126 -3 -14 -7
-27 -8 -30 -4 -19 -32 -57 -57 -78 -26 -22 -28 -27 -15 -40 16 -15 62 -19 112
-8 83 17 213 23 355 15 67 -3 133 25 138 60 3 17 -6 25 -45 41 -69 29 -113 53
-113 62 0 5 -6 8 -14 8 -8 0 -16 3 -18 8 -11 25 -137 91 -228 120 -36 11 -72
23 -80 26 -9 4 -20 -1 -26 -11z"/>
<path d="M6892 6175 c-18 -8 -35 -14 -37 -15 -3 0 -8 -1 -12 -1 -5 -1 -12 -2
-18 -3 -21 -3 -133 -66 -162 -90 -17 -14 -33 -26 -36 -26 -3 0 -25 -13 -49
-29 -24 -16 -54 -32 -68 -36 -14 -4 -35 -14 -48 -21 -19 -12 -21 -18 -11 -35
17 -33 76 -53 149 -49 157 7 273 1 347 -18 38 -10 91 -6 108 8 11 9 7 17 -21
47 -61 63 -85 158 -59 233 8 22 11 41 7 43 -17 9 -60 5 -90 -8z"/>
<path d="M3575 6159 c-27 -5 -57 -12 -65 -16 -8 -3 -19 -7 -25 -8 -5 -1 -13
-3 -17 -5 -5 -1 -11 -3 -15 -5 -45 -12 -190 -84 -204 -101 -22 -26 10 -42 121
-59 14 -3 75 -18 135 -36 61 -17 115 -32 120 -33 6 -2 21 -6 35 -10 27 -7 140
-15 140 -10 0 2 -18 13 -40 24 -56 29 -77 75 -75 169 2 103 -6 109 -110 90z"/>
<path d="M7566 6155 c-11 -12 -15 -36 -14 -93 2 -92 -16 -135 -67 -159 -48
-23 -44 -31 13 -27 57 4 55 3 217 48 72 19 158 40 193 47 72 13 102 34 80 55
-24 23 -192 103 -228 109 -3 1 -27 6 -55 13 -92 21 -123 23 -139 7z"/>
<path d="M5309 4933 c-97 -100 -99 -102 -154 -125 -82 -35 -132 -44 -287 -52
-26 -1 -51 -5 -54 -9 -4 -4 -16 -7 -26 -7 -35 0 -124 -49 -168 -92 -46 -45
-92 -135 -105 -203 -7 -42 -8 -165 -1 -200 26 -123 125 -264 221 -312 59 -31
206 -55 205 -34 -1 10 -27 41 -34 41 -4 0 -14 6 -21 13 -33 29 -45 37 -54 37
-6 0 -27 12 -48 26 -119 80 -169 206 -135 342 30 121 108 206 208 227 68 14
152 12 219 -5 72 -18 105 -15 151 14 25 17 122 182 154 265 22 58 37 161 23
161 -4 0 -47 -39 -94 -87z"/>
<path d="M5797 5014 c-9 -9 2 -81 20 -134 16 -48 100 -209 128 -247 48 -65 90
-77 184 -53 101 27 218 18 289 -21 64 -37 103 -88 136 -185 13 -38 15 -140 4
-174 -3 -8 -8 -27 -13 -42 -4 -16 -11 -28 -16 -28 -5 0 -9 -6 -9 -14 0 -22
-69 -84 -135 -121 -129 -74 -149 -112 -51 -101 140 15 243 92 311 231 43 86
54 142 49 248 -7 164 -73 276 -204 342 -27 14 -60 27 -72 29 -13 3 -23 5 -23
6 0 1 -29 3 -65 6 -98 7 -143 12 -165 17 -11 3 -33 8 -50 12 -85 20 -156 70
-250 176 -44 50 -59 61 -68 53z"/>
<path d="M4974 4386 c-70 -19 -101 -53 -114 -129 -9 -48 19 -94 72 -120 42
-21 131 -28 191 -15 78 16 92 17 128 7 23 -6 47 -22 64 -44 56 -74 103 -110
106 -82 10 82 -50 199 -150 294 -66 62 -119 84 -231 98 -14 1 -43 -3 -66 -9z"/>
<path d="M6136 4393 c-2 -2 -18 -6 -36 -8 -99 -13 -227 -124 -286 -247 -32
-65 -42 -132 -24 -143 10 -6 75 53 96 86 29 46 104 70 145 48 21 -11 175 -16
209 -6 42 11 71 34 88 68 48 97 -23 197 -144 203 -24 1 -46 1 -48 -1z"/>
<path d="M5053 3839 c-81 -17 -157 -41 -243 -76 -39 -17 -67 -28 -90 -37 -8
-3 -22 -10 -30 -14 -8 -5 -96 -49 -195 -98 -99 -49 -182 -92 -185 -95 -3 -3
-34 -21 -70 -41 -112 -60 -188 -105 -200 -118 -3 -3 -18 -12 -35 -20 -51 -26
-102 -86 -139 -162 -35 -73 -83 -238 -91 -313 -3 -22 -7 -51 -10 -65 -24 -118
-24 -355 0 -1030 2 -63 6 -209 10 -325 16 -604 15 -577 40 -656 19 -55 60 -96
140 -140 33 -18 78 -43 100 -55 22 -13 63 -35 90 -50 28 -14 62 -35 77 -45 14
-11 29 -19 32 -19 4 0 23 -11 44 -24 20 -13 80 -50 132 -82 52 -32 100 -62
105 -66 28 -23 194 -148 239 -181 90 -66 202 -105 311 -110 30 -1 55 -4 55 -7
0 -3 207 -5 460 -5 253 0 460 2 460 5 0 3 17 5 37 4 21 0 58 4 83 8 25 5 55
10 68 13 51 9 174 78 258 146 94 76 250 184 347 240 33 19 71 41 85 50 80 49
243 139 251 139 5 0 11 3 13 8 2 4 25 18 52 32 70 36 121 88 139 140 23 70 25
101 43 720 10 359 12 447 20 665 11 337 7 526 -12 619 -2 11 -7 41 -10 64 -4
35 -32 151 -58 242 -19 66 -75 161 -114 193 -12 10 -29 25 -36 33 -8 8 -17 14
-21 14 -4 0 -26 14 -50 30 -24 17 -46 30 -50 30 -3 0 -22 11 -43 23 -71 45
-92 57 -99 58 -5 1 -19 9 -33 19 -77 55 -573 290 -643 304 -12 3 -44 12 -71
20 -49 16 -116 28 -171 31 -42 2 -93 -20 -127 -55 -15 -17 -31 -30 -34 -30 -2
0 -17 -11 -32 -25 -30 -28 -104 -67 -168 -89 -108 -37 -251 14 -389 139 -71
64 -107 71 -242 44z m330 -424 c73 -21 317 -27 395 -10 28 7 52 10 52 7 0 -2
7 2 16 9 22 18 134 15 214 -6 36 -9 73 -18 84 -20 54 -12 159 -53 291 -113 72
-34 265 -145 297 -171 7 -6 38 -30 68 -53 141 -108 221 -194 240 -256 21 -69
21 -69 26 -167 2 -49 7 -104 9 -120 7 -44 43 -106 77 -135 37 -31 57 -78 63
-149 3 -31 7 -66 9 -79 3 -12 8 -89 11 -170 4 -81 8 -174 10 -207 2 -33 4
-104 6 -158 2 -93 1 -99 -23 -123 -30 -31 -75 -37 -143 -18 -27 7 -78 16 -112
20 -87 9 -122 -16 -139 -101 -30 -151 -55 -217 -100 -258 -16 -16 -67 -40
-119 -57 -110 -36 -315 -90 -315 -83 0 3 -6 0 -13 -6 -8 -6 -16 -8 -19 -5 -3
3 -23 1 -44 -5 -39 -10 -78 -16 -164 -26 -25 -3 -56 -7 -70 -10 -53 -11 -555
-25 -555 -16 0 1 -39 3 -86 6 -48 2 -104 6 -125 9 -22 3 -59 8 -84 11 -40 5
-61 8 -120 19 -8 1 -37 7 -65 11 -57 10 -64 12 -67 15 -2 1 -12 3 -23 5 -48 7
-231 58 -240 66 -5 5 -19 9 -30 9 -12 0 -25 3 -29 7 -7 8 -12 9 -39 12 -22 2
-86 69 -102 107 -16 40 -44 140 -52 189 -16 96 -58 118 -184 95 -35 -7 -68
-14 -73 -18 -18 -11 -81 -9 -112 3 -40 16 -52 51 -48 140 4 96 13 291 18 405
11 226 31 319 76 357 50 42 80 104 85 175 3 35 7 93 9 129 8 113 35 173 118
252 58 56 165 141 283 225 104 73 458 230 560 248 11 2 49 10 85 17 79 16 117
15 193 -8z"/>
<path d="M5230 3194 c-92 -19 -228 -68 -329 -118 -113 -56 -246 -133 -261
-151 -7 -8 -17 -15 -22 -15 -5 0 -22 -9 -36 -21 -104 -80 -156 -121 -167 -132
-7 -6 -25 -24 -41 -38 -41 -37 -66 -69 -62 -80 2 -5 80 41 173 103 240 159
495 279 629 295 60 7 91 11 91 13 0 5 223 0 285 -6 91 -10 146 -10 225 1 100
13 289 8 385 -11 14 -3 37 -7 51 -10 15 -3 51 -14 80 -25 30 -11 63 -23 74
-27 38 -11 220 -105 288 -148 37 -24 70 -44 73 -44 5 0 29 -17 81 -60 7 -6 14
-10 17 -10 3 0 31 -18 62 -40 32 -22 61 -40 66 -40 25 0 -63 100 -138 156 -22
16 -41 31 -44 35 -26 29 -290 201 -329 214 -12 3 -21 11 -21 16 0 5 -9 9 -19
9 -11 0 -22 4 -25 9 -8 12 -174 78 -256 103 -135 39 -196 41 -266 5 -65 -33
-98 -39 -209 -39 -83 1 -101 4 -157 30 -80 38 -117 43 -198 26z"/>
<path d="M5457 2794 c-1 -1 -69 -4 -152 -8 -82 -4 -168 -9 -190 -11 -22 -3
-47 -6 -55 -6 -26 -1 -293 -47 -320 -54 -8 -2 -30 -7 -48 -10 -41 -7 -132 -46
-132 -57 0 -8 27 -5 90 7 14 3 41 7 60 9 19 3 51 7 70 10 87 15 193 19 430 17
140 -1 320 -1 400 0 673 5 727 2 983 -46 15 -3 27 -1 27 5 0 6 -12 15 -27 20
-16 6 -37 14 -48 19 -19 9 -57 19 -100 27 -255 48 -300 54 -504 68 -52 4 -98
9 -102 12 -4 2 -10 0 -14 -5 -3 -6 -12 -8 -20 -5 -12 5 -343 12 -348 8z"/>
<path d="M4430 2550 c0 -11 3 -20 8 -20 4 0 18 -10 32 -22 41 -38 138 -108
149 -108 5 0 11 -4 13 -9 6 -18 329 -198 368 -207 3 0 17 -6 32 -12 38 -16
129 -42 164 -47 16 -2 49 -7 74 -12 54 -9 536 -10 600 -1 147 21 257 57 405
134 61 31 112 60 113 65 2 5 9 9 16 9 7 0 30 13 52 30 21 16 43 30 47 30 11 0
153 106 192 141 36 35 25 50 -18 25 -163 -95 -438 -208 -562 -231 -11 -2 -20
-4 -20 -5 0 -2 -11 -4 -105 -23 -141 -28 -262 -40 -415 -41 -83 0 -235 10
-281 18 -10 2 -40 6 -65 10 -246 36 -507 130 -761 274 -37 21 -38 21 -38 2z"/>
<path d="M5403 1870 c-76 -20 -109 -36 -118 -59 -4 -11 6 -12 57 -7 35 4 79
10 98 14 81 15 229 5 333 -23 33 -9 69 -15 80 -13 19 3 17 6 -16 26 -21 12
-45 22 -53 22 -8 0 -14 4 -14 8 0 8 -47 26 -100 39 -56 14 -201 10 -267 -7z"/>
</g>
</svg>
