<?xml version="1.0" standalone="no"?>
<!DOCTYPE svg PUBLIC "-//W3C//DTD SVG 20010904//EN"
 "http://www.w3.org/TR/2001/REC-SVG-20010904/DTD/svg10.dtd">
<svg version="1.0" xmlns="http://www.w3.org/2000/svg"
 width="1072.000000pt" height="1072.000000pt" viewBox="0 0 1072.000000 1072.000000"
 preserveAspectRatio="xMidYMid meet">
<metadata>
Created by potrace 1.14, written by Peter Selinger 2001-2017
</metadata>
<g transform="translate(0.000000,1072.000000) scale(0.100000,-0.100000)"
fill="#000000" stroke="none">
<path d="M5399 10716 c-2 -2 -40 -7 -84 -10 -44 -4 -98 -9 -120 -11 -22 -2
-69 -7 -105 -10 -127 -12 -229 -23 -270 -30 -14 -2 -41 -6 -60 -9 -19 -3 -46
-8 -60 -11 -14 -3 -38 -8 -55 -10 -16 -3 -37 -8 -45 -10 -8 -2 -28 -7 -45 -10
-38 -8 -60 -13 -60 -15 0 -1 -7 -3 -16 -5 -24 -4 -131 -35 -149 -42 -17 -7
-28 -10 -55 -17 -78 -18 -473 -200 -585 -268 -40 -25 -170 -109 -185 -120
-231 -169 -372 -287 -528 -442 -88 -88 -238 -256 -294 -331 -13 -17 -35 -46
-50 -66 -16 -20 -35 -47 -43 -59 -8 -12 -27 -40 -42 -61 -16 -21 -28 -43 -28
-47 0 -5 -9 -17 -20 -27 -11 -10 -20 -21 -20 -25 0 -4 -22 -45 -50 -91 -27
-46 -50 -90 -50 -96 0 -7 -4 -13 -10 -13 -5 0 -10 -9 -10 -20 0 -11 -4 -20
-10 -20 -5 0 -10 -4 -10 -9 0 -6 -18 -49 -41 -98 -74 -162 -91 -203 -81 -203
4 0 2 -4 -3 -8 -21 -15 -132 -389 -149 -506 -4 -21 -8 -41 -10 -45 -3 -4 -7
-31 -11 -61 -3 -29 -7 -56 -9 -59 -3 -5 -9 -47 -22 -156 -14 -126 -18 -213
-18 -445 1 -146 4 -301 7 -345 11 -134 16 -176 21 -204 5 -28 13 -88 31 -251
9 -78 15 -131 18 -143 1 -8 -10 -11 -33 -10 -83 5 -134 3 -170 -7 -47 -13
-107 -76 -115 -122 -7 -42 1 -174 21 -308 3 -25 8 -54 9 -66 6 -44 38 -171 56
-221 10 -29 15 -53 11 -53 -4 0 -2 -4 5 -8 7 -4 15 -23 18 -41 3 -19 8 -38 10
-42 6 -9 53 -187 66 -249 5 -25 11 -55 14 -67 9 -42 26 -140 40 -240 14 -94
25 -293 30 -513 2 -107 6 -208 9 -223 11 -47 45 -112 74 -140 30 -28 117 -77
138 -77 13 0 25 -27 30 -70 1 -14 5 -34 7 -45 2 -11 8 -42 11 -68 4 -27 10
-59 12 -70 3 -12 7 -40 10 -62 3 -22 7 -46 10 -54 3 -8 7 -30 10 -50 3 -19 12
-64 20 -100 8 -36 17 -79 20 -96 3 -16 14 -60 24 -97 10 -38 17 -68 14 -68 -2
0 2 -17 10 -37 8 -21 19 -60 26 -88 7 -27 15 -57 18 -65 3 -8 6 -17 7 -20 25
-83 101 -299 125 -355 8 -16 14 -32 14 -35 2 -10 110 -245 116 -250 3 -3 21
-36 40 -75 19 -38 37 -72 40 -75 8 -7 27 -40 51 -88 13 -23 26 -42 30 -42 3 0
12 -13 19 -30 7 -16 16 -30 21 -30 5 0 9 -5 9 -10 0 -10 36 -67 50 -80 3 -3
17 -21 30 -40 13 -19 29 -40 35 -46 5 -6 24 -29 40 -50 17 -21 40 -49 53 -62
12 -13 22 -24 22 -26 0 -9 59 -66 68 -66 27 0 16 42 -97 360 -182 514 -242
696 -247 750 -2 25 -4 95 -3 155 5 391 -5 647 -35 860 -3 22 -8 51 -11 65 -3
14 -7 39 -9 55 -9 58 -16 93 -41 189 -28 108 -78 264 -94 295 -6 10 -28 87
-50 169 -41 158 -43 188 -27 402 13 166 16 198 21 270 8 119 16 289 20 412 6
173 14 262 30 348 3 19 8 46 10 60 5 28 9 47 24 105 5 22 14 56 19 75 5 20 14
44 19 55 6 11 11 23 12 28 1 4 1 8 2 10 0 1 2 9 4 17 2 8 11 33 21 55 10 22
18 42 19 45 4 15 63 129 79 153 36 54 141 95 433 168 112 29 278 31 373 7 36
-10 94 -20 130 -23 100 -9 111 -11 175 -30 33 -9 83 -19 110 -20 71 -4 165
-15 200 -23 39 -8 402 -8 480 0 76 9 116 21 182 54 79 40 97 64 96 127 0 28
-3 63 -6 77 -3 14 -10 49 -16 79 -24 120 -67 165 -151 156 -82 -8 -229 -18
-280 -18 -99 0 -452 20 -486 28 -12 2 -39 7 -60 10 -21 4 -57 11 -79 17 -22 5
-50 12 -62 14 -12 2 -57 12 -99 22 -97 23 -283 21 -396 -4 -10 -2 -28 -6 -39
-9 -55 -12 -133 -37 -195 -64 -38 -16 -72 -27 -76 -23 -4 4 -9 25 -12 47 -3
22 -8 60 -11 84 -3 23 -7 55 -9 70 -3 14 -8 51 -11 81 -4 30 -9 62 -10 71 -2
8 -6 40 -9 70 -6 55 -11 91 -20 157 -3 20 -8 60 -11 87 -3 28 -7 61 -10 75 -2
14 -7 50 -10 80 -3 30 -11 82 -16 115 -5 33 -12 103 -15 155 -6 105 -7 103 75
272 23 46 41 90 41 96 0 7 3 12 8 12 4 0 13 15 21 33 8 17 36 79 64 137 27 58
66 141 87 185 21 44 92 191 158 326 110 225 125 251 184 310 89 90 213 149
368 174 19 3 58 10 85 15 28 5 64 12 80 14 55 9 160 25 200 31 23 3 50 7 60 9
11 2 47 7 80 11 32 4 67 8 76 10 9 2 40 6 70 10 67 7 126 15 159 20 14 2 50 6
80 10 30 3 71 8 90 11 19 3 58 7 85 9 106 10 162 15 200 20 49 6 201 18 235
18 41 0 213 -14 220 -18 4 -2 38 -7 76 -10 38 -3 85 -7 104 -9 19 -2 76 -7
125 -11 50 -3 108 -8 130 -11 22 -2 76 -6 120 -9 92 -6 157 -12 200 -20 17 -3
50 -8 75 -11 62 -8 200 -41 295 -71 44 -13 87 -26 95 -28 8 -2 89 -29 180 -60
91 -30 174 -57 185 -59 99 -20 284 -75 342 -102 102 -48 162 -111 239 -249 15
-28 36 -66 47 -85 10 -19 45 -73 76 -119 91 -136 151 -245 151 -274 0 -7 5
-18 12 -25 7 -7 9 -12 5 -12 -3 0 -3 -10 2 -23 19 -49 31 -263 17 -286 -15
-24 -24 -253 -13 -301 14 -58 42 -88 212 -225 217 -174 243 -199 261 -241 16
-38 26 -91 40 -209 3 -33 8 -69 11 -80 5 -25 13 -81 17 -120 2 -16 6 -48 10
-70 4 -22 8 -56 11 -75 2 -19 8 -66 14 -105 5 -38 13 -90 16 -115 4 -25 8 -54
9 -65 2 -11 6 -45 10 -75 4 -30 9 -66 11 -80 6 -34 12 -72 25 -165 6 -44 15
-107 20 -140 5 -33 12 -81 15 -107 3 -26 8 -55 11 -63 6 -15 23 -21 25 -7 0 4
2 16 5 27 6 32 13 94 19 180 3 44 8 109 11 145 2 36 8 106 11 155 8 109 8 657
0 736 -3 31 -8 85 -12 120 -3 35 -8 80 -10 99 -2 19 -7 62 -10 95 -3 33 -8 71
-10 85 -26 182 -27 187 -45 280 -6 30 -13 71 -16 90 -8 43 -9 51 -17 70 -6 17
-26 95 -31 125 -3 11 -11 45 -20 75 -9 30 -18 62 -20 70 -31 119 -137 383
-214 530 -61 116 -161 283 -174 288 -4 2 -8 10 -8 17 0 7 -3 15 -7 17 -5 2
-24 26 -43 53 -19 28 -40 57 -46 65 -191 242 -410 457 -629 617 -55 40 -105
77 -112 83 -7 5 -15 10 -18 10 -4 0 -26 13 -49 29 -70 49 -143 88 -296 162
-80 38 -153 74 -162 79 -10 6 -22 10 -27 10 -5 0 -22 5 -38 12 -15 6 -30 12
-33 12 -3 1 -9 4 -15 8 -10 6 -227 77 -257 84 -10 2 -27 6 -38 8 -11 3 -24 7
-28 10 -5 3 -19 7 -33 10 -13 2 -78 16 -144 30 -66 14 -133 27 -150 30 -31 5
-100 15 -145 21 -72 10 -157 18 -350 30 -119 8 -347 15 -351 11z"/>
<path d="M6407 7064 c-2 -2 -17 -4 -35 -6 -18 -1 -32 -6 -32 -10 0 -4 -5 -8
-11 -8 -19 0 -49 -41 -50 -69 -3 -57 -1 -137 4 -151 27 -82 42 -117 53 -131 8
-8 14 -19 14 -24 0 -22 95 -82 160 -100 30 -8 105 -23 165 -31 22 -3 42 -7 45
-7 6 -1 115 13 144 19 11 2 45 6 75 9 31 3 73 7 95 10 236 27 845 39 1016 19
105 -12 180 -22 285 -38 11 -2 48 -7 82 -11 l62 -7 9 38 c16 69 13 95 -17 143
-32 50 -120 132 -179 167 -102 61 -247 116 -366 139 -67 13 -225 13 -311 0
-22 -3 -51 -7 -65 -9 -14 -2 -43 -8 -65 -14 -112 -30 -345 -37 -440 -15 -33 8
-64 16 -70 17 -5 1 -41 12 -79 24 -37 12 -80 24 -95 27 -14 3 -37 8 -51 11
-27 6 -338 13 -343 8z"/>
<path d="M5695 6293 c-102 -20 -173 -59 -82 -46 80 11 219 6 310 -12 46 -9 30
12 -20 26 -27 7 -50 14 -53 15 -81 16 -130 21 -155 17z"/>
<path d="M4306 6211 c-4 -6 -2 -19 3 -29 14 -26 20 -91 9 -98 -4 -3 -6 -9 -3
-14 10 -16 -36 -119 -65 -143 -15 -13 -25 -28 -22 -34 4 -5 34 -9 67 -7 33 1
133 5 223 8 89 3 167 8 172 11 5 3 11 1 15 -4 3 -6 13 -7 21 -4 9 3 23 7 32 8
27 2 69 23 78 37 17 26 11 36 -30 54 -22 11 -93 50 -156 88 -63 38 -143 82
-176 97 -69 32 -158 47 -168 30z"/>
<path d="M3685 6202 c-3 -3 -11 -7 -18 -8 -7 -1 -80 -23 -162 -49 -83 -26
-164 -51 -182 -56 -46 -14 -54 -58 -11 -65 7 -1 103 -25 213 -54 110 -28 225
-54 255 -56 l55 -6 -33 21 c-47 30 -72 95 -75 194 -2 66 -5 81 -19 83 -9 1
-19 -1 -23 -4z"/>
<path d="M6980 6119 c-96 -24 -226 -72 -270 -99 -8 -5 -34 -18 -57 -29 -23
-10 -64 -34 -92 -52 -41 -27 -51 -39 -51 -61 0 -37 26 -49 114 -53 39 -2 109
-6 156 -9 208 -13 290 -16 290 -11 0 3 -11 18 -25 33 -63 68 -63 188 1 255 14
16 22 32 18 37 -5 4 -43 -1 -84 -11z"/>
<path d="M7560 6082 c0 -4 10 -35 21 -67 24 -67 32 -155 18 -193 -12 -31 -55
-72 -75 -72 -20 0 -17 -20 4 -21 40 -3 119 0 147 6 17 3 48 8 70 11 105 16
270 94 270 128 0 13 -41 39 -143 91 -79 41 -165 82 -190 91 -26 10 -51 21 -56
26 -13 10 -66 11 -66 0z"/>
<path d="M4598 5272 c-15 -9 -35 -30 -44 -48 l-17 -32 37 -51 c21 -28 44 -51
51 -51 20 0 85 80 85 105 0 28 -25 62 -58 79 -24 13 -31 12 -54 -2z m-17 -45
c-10 -9 -11 -8 -5 6 3 10 9 15 12 12 3 -3 0 -11 -7 -18z m3 -33 c3 -8 2 -12
-4 -9 -6 3 -10 10 -10 16 0 14 7 11 14 -7z"/>
<path d="M5480 4975 c-59 -16 -132 -51 -158 -75 -12 -11 -24 -20 -27 -20 -4 0
-12 -6 -19 -12 -48 -47 -95 -87 -114 -97 -14 -7 -53 -9 -119 -5 -158 10 -148
7 -151 42 -2 18 -7 32 -12 32 -16 0 -220 -213 -245 -257 -73 -123 -88 -264
-44 -404 13 -41 27 -75 31 -77 4 -2 8 -10 8 -17 0 -24 96 -112 151 -138 66
-31 112 -42 107 -27 -2 6 -7 11 -12 10 -5 -1 -12 2 -15 7 -3 4 -22 20 -41 34
-139 104 -212 269 -186 424 6 41 29 105 38 105 4 0 8 6 8 13 0 22 71 87 124
114 27 14 76 30 110 37 55 12 91 13 216 6 60 -3 92 11 152 68 28 26 56 52 62
57 65 61 186 131 259 149 24 6 39 34 20 37 -45 7 -106 4 -143 -6z"/>
<path d="M5925 4962 c-21 -15 -12 -30 31 -53 25 -13 65 -41 88 -64 40 -38 126
-154 126 -169 0 -13 36 -45 60 -54 14 -5 42 -5 69 0 160 32 269 -15 342 -147
44 -79 60 -246 35 -360 -22 -99 -99 -208 -156 -220 -64 -13 -99 -17 -147 -19
-28 -1 -54 -4 -58 -7 -7 -7 111 -34 140 -32 67 5 129 35 181 88 78 81 115 177
119 314 6 196 -56 338 -234 540 -30 34 -56 59 -59 56 -2 -2 9 -30 25 -62 16
-32 28 -63 26 -70 -3 -7 -18 -9 -41 -6 -66 9 -77 9 -97 2 -11 -3 -41 -1 -67 6
-36 9 -57 23 -85 56 -113 131 -175 180 -246 193 -14 2 -30 7 -35 10 -4 2 -12
2 -17 -2z"/>
<path d="M5083 4399 c-13 -5 -23 -6 -23 -4 0 8 -110 -44 -126 -59 -34 -34 -21
-102 29 -148 53 -49 146 -66 237 -44 14 4 50 9 81 11 53 5 56 4 81 -27 15 -18
41 -49 58 -68 30 -33 32 -34 45 -16 10 13 11 24 4 37 -5 11 -7 19 -5 19 3 0
-7 28 -22 63 -52 121 -166 216 -277 232 -22 3 -44 7 -50 9 -5 2 -20 0 -32 -5z"/>
<path d="M6215 4350 c-23 -8 -70 -26 -105 -40 -103 -39 -186 -135 -219 -255
-6 -22 -7 -43 -3 -47 4 -4 34 10 66 32 32 22 75 44 95 49 50 13 141 21 141 13
0 -16 79 -44 124 -44 85 -1 168 144 128 224 -16 33 -67 78 -90 79 -71 5 -102
3 -137 -11z m102 -132 c-3 -8 -6 -5 -6 6 -1 11 2 17 5 13 3 -3 4 -12 1 -19z"/>
<path d="M5180 3879 c-30 -11 -65 -22 -78 -25 -20 -4 -193 -64 -232 -81 -8 -3
-20 -7 -26 -8 -11 -3 -31 -11 -109 -45 -16 -8 -32 -14 -35 -15 -50 -16 -296
-135 -385 -187 -140 -82 -284 -179 -328 -222 -34 -33 -49 -59 -75 -136 -45
-132 -57 -174 -68 -245 -2 -11 -10 -58 -18 -105 -16 -88 -16 -356 0 -1225 3
-187 7 -430 8 -540 1 -110 6 -213 11 -230 14 -50 52 -102 97 -133 52 -35 178
-112 185 -112 2 0 24 -14 48 -30 24 -17 48 -30 54 -30 6 0 11 -4 11 -10 0 -5
5 -10 10 -10 6 0 34 -16 63 -35 28 -19 57 -35 64 -35 6 0 13 -3 15 -8 2 -4 91
-61 198 -127 107 -65 227 -140 267 -167 40 -26 96 -62 125 -80 l53 -32 485 -1
485 0 65 32 c36 17 153 81 260 141 230 128 313 174 395 216 33 17 62 33 65 36
3 3 58 32 123 65 126 63 174 102 224 175 30 45 61 146 69 224 2 23 6 61 9 86
15 135 17 158 21 185 2 17 6 53 9 80 7 65 15 141 20 185 2 19 7 60 10 90 3 30
8 80 11 110 3 30 7 62 9 70 3 8 7 46 10 83 4 37 8 76 10 86 3 19 15 108 20
151 2 14 6 45 9 70 4 25 9 59 11 75 2 17 4 30 5 30 1 0 3 18 6 40 2 22 6 58 9
80 25 196 25 453 0 605 -2 14 -6 39 -9 55 -23 137 -50 182 -161 257 -33 23
-66 48 -73 55 -7 7 -17 13 -22 13 -5 0 -15 6 -22 13 -29 27 -88 68 -88 60 0
-4 -4 -3 -8 3 -9 14 -161 114 -173 114 -5 0 -9 4 -9 9 0 5 -8 11 -17 15 -10 3
-36 17 -58 31 -126 78 -494 270 -515 268 -3 -1 -21 7 -40 17 -50 25 -93 32
-121 21 -13 -5 -55 -40 -94 -77 -83 -79 -152 -114 -241 -122 -115 -9 -170 16
-369 163 -63 47 -115 85 -117 85 -2 -1 -28 -10 -58 -21z m270 -448 c50 -13
108 -19 198 -20 123 -1 142 -3 227 -15 60 -9 96 -18 180 -44 64 -19 120 -43
225 -96 121 -62 154 -78 255 -126 50 -24 92 -47 93 -52 2 -4 8 -8 14 -8 17 0
128 -83 183 -136 132 -128 188 -250 201 -443 3 -36 10 -84 15 -106 13 -49 55
-142 69 -150 6 -3 18 -21 27 -38 16 -29 18 -78 19 -477 1 -280 -2 -450 -8
-457 -7 -9 -16 -10 -29 -2 -10 5 -19 8 -19 5 0 -2 -51 9 -112 26 -62 17 -123
32 -136 35 -39 9 -76 -15 -102 -64 -14 -26 -53 -96 -87 -156 -35 -60 -63 -114
-63 -118 0 -5 -4 -9 -8 -9 -5 0 -14 -11 -22 -24 -18 -34 -45 -44 -175 -61 -72
-10 -113 -15 -164 -21 -30 -3 -64 -8 -75 -10 -12 -3 -41 -7 -66 -9 -25 -2 -65
-7 -90 -10 -51 -7 -84 -10 -190 -22 -86 -9 -687 -8 -740 1 -19 4 -46 9 -60 13
-14 3 -34 8 -44 10 -48 9 -119 36 -251 98 -38 17 -107 45 -152 60 -120 42
-144 70 -183 215 -14 52 -25 86 -36 115 -4 11 -8 22 -8 25 -5 26 -31 70 -42
71 -8 1 -20 2 -26 3 -7 1 -43 -4 -81 -11 -37 -6 -86 -14 -110 -17 -24 -3 -62
-8 -85 -12 -49 -8 -44 -23 -42 151 3 169 14 420 25 535 3 30 7 80 10 110 11
133 25 172 72 208 15 12 41 32 57 44 39 30 58 80 62 168 2 41 6 85 9 98 3 12
7 32 10 45 26 120 159 279 305 366 186 111 517 267 605 286 54 11 66 14 73 18
4 3 29 8 57 12 27 3 51 7 52 9 11 10 104 3 163 -13z"/>
<path d="M5167 3168 c-127 -51 -565 -264 -606 -295 -57 -44 -191 -177 -188
-187 6 -19 31 -13 68 16 20 15 42 28 48 28 6 0 11 5 11 10 0 6 5 10 10 10 6 0
33 16 60 35 27 19 54 35 60 35 5 0 10 4 10 8 0 5 15 16 33 25 17 10 46 26 62
37 110 71 355 177 451 194 16 3 40 8 54 11 14 3 63 8 110 11 47 4 89 10 94 14
5 5 19 -2 33 -16 41 -41 80 -56 157 -56 39 -1 94 2 121 6 81 11 269 9 329 -4
30 -6 71 -22 91 -36 20 -13 38 -24 42 -24 6 0 385 -251 393 -261 3 -3 53 -38
112 -77 117 -79 136 -96 86 -81 -18 6 -46 14 -63 18 -16 5 -50 17 -75 28 -55
25 -172 62 -307 98 -21 6 -42 10 -93 20 -14 3 -36 7 -50 10 -14 3 -38 7 -55 9
-16 3 -46 7 -65 10 -87 14 -176 21 -365 32 -245 14 -677 -4 -855 -36 -129 -22
-179 -35 -194 -50 -14 -14 9 -30 36 -25 10 2 91 6 180 10 90 3 206 8 258 10
52 3 156 7 230 10 74 2 137 5 140 6 16 4 85 -3 148 -15 13 -3 71 -8 130 -11
59 -3 127 -8 152 -10 25 -2 83 -7 130 -10 47 -3 96 -8 110 -10 14 -2 48 -7 76
-10 28 -3 61 -8 75 -11 13 -3 40 -9 59 -14 19 -4 58 -13 85 -18 28 -6 124 -31
215 -56 97 -26 169 -41 174 -36 22 22 -222 277 -354 370 -19 14 -37 28 -40 31
-11 12 -160 109 -253 163 -171 101 -272 121 -411 83 -87 -23 -208 -18 -306 12
-82 26 -83 26 -76 -5 6 -24 5 -24 -23 9 -45 51 -96 48 -254 -15z"/>
<path d="M4562 2527 c7 -7 38 -30 68 -52 30 -22 57 -43 58 -47 2 -5 9 -8 17
-8 7 0 18 -6 24 -14 7 -8 27 -22 46 -31 19 -9 35 -20 35 -25 0 -6 9 -10 19
-10 11 0 22 -4 25 -9 9 -15 141 -80 235 -116 176 -68 325 -88 521 -71 37 3
100 0 145 -7 79 -13 262 -15 320 -3 17 3 41 8 55 11 14 3 41 8 60 12 46 9 49
10 55 13 3 1 8 3 13 4 7 1 51 18 100 37 62 25 78 32 92 40 8 5 22 12 30 15 8
3 24 10 35 17 11 6 34 17 50 26 17 8 32 17 35 20 3 3 16 12 30 19 50 26 65 41
52 54 -8 8 -25 7 -66 -6 -31 -10 -59 -18 -63 -18 -5 0 -17 -5 -28 -10 -19 -11
-83 -30 -175 -53 -241 -60 -313 -69 -545 -69 -177 0 -381 9 -460 19 -101 14
-182 27 -210 35 -16 5 -50 14 -75 21 -61 16 -196 68 -245 94 -207 113 -294
151 -253 112z"/>
<path d="M5495 1879 c-65 -12 -118 -33 -123 -48 -4 -11 8 -12 64 -7 132 14
220 14 295 0 40 -8 94 -16 119 -19 l45 -6 -30 15 c-53 25 -109 43 -155 51 -25
4 -54 10 -65 13 -33 9 -107 9 -150 1z"/>
</g>
</svg>
